HIERARCHY
ROOT Hips
{
    OFFSET   0.000000   0.000000   0.000000
    CHANNELS 6 Xposition Yposition Zposition Zrotation Xrotation Yrotation
    JOINT Chest
    {
        OFFSET   0.000000   8.007230   0.000000
        CHANNELS 3 Zrotation Xrotation Yrotation
        JOINT Chest2
        {
            OFFSET   0.000000  22.077100   0.000000
            CHANNELS 3 Zrotation Xrotation Yrotation
            JOINT Neck
            {
                OFFSET   0.000000  23.254800   0.000000
                CHANNELS 3 Zrotation Xrotation Yrotation
                JOINT Head
                {
                    OFFSET   0.000010  14.370000   1.956600
                    CHANNELS 3 Zrotation Xrotation Yrotation
                    End Site
                    {
                        OFFSET   0.000000  19.566000   0.000000
                    }
                }
            }
            JOINT LeftCollar
            {
                OFFSET   3.911900  19.017000  -0.467062
                CHANNELS 3 Zrotation Xrotation Yrotation
                JOINT LeftShoulder
                {
                    OFFSET  10.383700   0.000000   0.000000
                    CHANNELS 3 Zrotation Xrotation Yrotation
                    JOINT LeftElbow
                    {
                        OFFSET  26.662100   0.001193   0.000835
                        CHANNELS 3 Zrotation Xrotation Yrotation
                        JOINT LeftWrist
                        {
                            OFFSET  28.869000  -0.000058  -0.000075
                            CHANNELS 3 Zrotation Xrotation Yrotation
                            JOINT LeftFinger0
                            {
                                OFFSET   2.044660  -2.323460   3.252850
                                CHANNELS 3 Zrotation Xrotation Yrotation
                                JOINT LeftFinger01
                                {
                                    OFFSET   3.088130   0.000000   0.000000
                                    CHANNELS 3 Zrotation Xrotation Yrotation
                                    JOINT LeftFinger02
                                    {
                                        OFFSET   2.639450   0.000000   0.000000
                                        CHANNELS 3 Zrotation Xrotation Yrotation
                                        End Site
                                        {
                                            OFFSET   2.582190   0.000000   0.000000
                                        }
                                    }
                                }
                            }
                            JOINT LeftFinger1
                            {
                                OFFSET   8.364480   0.000000   3.252850
                                CHANNELS 3 Zrotation Xrotation Yrotation
                                JOINT LeftFinger11
                                {
                                    OFFSET   4.646920   0.000000   0.000000
                                    CHANNELS 3 Zrotation Xrotation Yrotation
                                    JOINT LeftFinger12
                                    {
                                        OFFSET   2.323460   0.000000   0.000000
                                        CHANNELS 3 Zrotation Xrotation Yrotation
                                        End Site
                                        {
                                            OFFSET   2.273050   0.000000   0.000000
                                        }
                                    }
                                }
                            }
                            JOINT LeftFinger2
                            {
                                OFFSET   8.364490   0.000016   1.078090
                                CHANNELS 3 Zrotation Xrotation Yrotation
                                JOINT LeftFinger21
                                {
                                    OFFSET   5.111620   0.000000   0.000000
                                    CHANNELS 3 Zrotation Xrotation Yrotation
                                    JOINT LeftFinger22
                                    {
                                        OFFSET   2.788150   0.000012   0.000000
                                        CHANNELS 3 Zrotation Xrotation Yrotation
                                        End Site
                                        {
                                            OFFSET   2.727660   0.000000   0.000000
                                        }
                                    }
                                }
                            }
                            JOINT LeftFinger3
                            {
                                OFFSET   7.899780   0.000014  -1.078090
                                CHANNELS 3 Zrotation Xrotation Yrotation
                                JOINT LeftFinger31
                                {
                                    OFFSET   4.646930   0.000000   0.000000
                                    CHANNELS 3 Zrotation Xrotation Yrotation
                                    JOINT LeftFinger32
                                    {
                                        OFFSET   2.323470   0.000000   0.000000
                                        CHANNELS 3 Zrotation Xrotation Yrotation
                                        End Site
                                        {
                                            OFFSET   2.273050   0.000000   0.000000
                                        }
                                    }
                                }
                            }
                            JOINT LeftFinger4
                            {
                                OFFSET   7.435090   0.000000  -3.252850
                                CHANNELS 3 Zrotation Xrotation Yrotation
                                JOINT LeftFinger41
                                {
                                    OFFSET   3.717550   0.000000   0.000000
                                    CHANNELS 3 Zrotation Xrotation Yrotation
                                    JOINT LeftFinger42
                                    {
                                        OFFSET   1.858770   0.000000   0.000000
                                        CHANNELS 3 Zrotation Xrotation Yrotation
                                        End Site
                                        {
                                            OFFSET   1.818440   0.000000   0.000000
                                        }
                                    }
                                }
                            }
                        }
                    }
                }
            }
            JOINT RightCollar
            {
                OFFSET  -3.911900  19.017000  -0.467063
                CHANNELS 3 Zrotation Xrotation Yrotation
                JOINT RightShoulder
                {
                    OFFSET -10.383700   0.000023   0.000000
                    CHANNELS 3 Zrotation Xrotation Yrotation
                    JOINT RightElbow
                    {
                        OFFSET -26.662100   0.001246   0.001011
                        CHANNELS 3 Zrotation Xrotation Yrotation
                        JOINT RightWrist
                        {
                            OFFSET -28.869000  -0.000026  -0.000078
                            CHANNELS 3 Zrotation Xrotation Yrotation
                            JOINT RightFinger0
                            {
                                OFFSET  -2.044660  -2.323490   3.252850
                                CHANNELS 3 Zrotation Xrotation Yrotation
                                JOINT RightFinger01
                                {
                                    OFFSET  -3.088130   0.000000   0.000000
                                    CHANNELS 3 Zrotation Xrotation Yrotation
                                    JOINT RightFinger02
                                    {
                                        OFFSET  -2.639460   0.000000   0.000000
                                        CHANNELS 3 Zrotation Xrotation Yrotation
                                        End Site
                                        {
                                            OFFSET  -2.582190   0.000000   0.000000
                                        }
                                    }
                                }
                            }
                            JOINT RightFinger1
                            {
                                OFFSET  -8.364480   0.000000   3.252850
                                CHANNELS 3 Zrotation Xrotation Yrotation
                                JOINT RightFinger11
                                {
                                    OFFSET  -4.646920   0.000000   0.000000
                                    CHANNELS 3 Zrotation Xrotation Yrotation
                                    JOINT RightFinger12
                                    {
                                        OFFSET  -2.323470   0.000000   0.000000
                                        CHANNELS 3 Zrotation Xrotation Yrotation
                                        End Site
                                        {
                                            OFFSET  -2.273050   0.000000   0.000000
                                        }
                                    }
                                }
                            }
                            JOINT RightFinger2
                            {
                                OFFSET  -8.364480   0.000000   1.078090
                                CHANNELS 3 Zrotation Xrotation Yrotation
                                JOINT RightFinger21
                                {
                                    OFFSET  -5.111620   0.000000   0.000000
                                    CHANNELS 3 Zrotation Xrotation Yrotation
                                    JOINT RightFinger22
                                    {
                                        OFFSET  -2.788160   0.000000   0.000000
                                        CHANNELS 3 Zrotation Xrotation Yrotation
                                        End Site
                                        {
                                            OFFSET  -2.727660   0.000000   0.000000
                                        }
                                    }
                                }
                            }
                            JOINT RightFinger3
                            {
                                OFFSET  -7.899780   0.000000  -1.078090
                                CHANNELS 3 Zrotation Xrotation Yrotation
                                JOINT RightFinger31
                                {
                                    OFFSET  -4.646930   0.000000   0.000000
                                    CHANNELS 3 Zrotation Xrotation Yrotation
                                    JOINT RightFinger32
                                    {
                                        OFFSET  -2.323470   0.000000   0.000000
                                        CHANNELS 3 Zrotation Xrotation Yrotation
                                        End Site
                                        {
                                            OFFSET  -2.273050   0.000000   0.000000
                                        }
                                    }
                                }
                            }
                            JOINT RightFinger4
                            {
                                OFFSET  -7.435090   0.000000  -3.252850
                                CHANNELS 3 Zrotation Xrotation Yrotation
                                JOINT RightFinger41
                                {
                                    OFFSET  -3.717550   0.000000   0.000000
                                    CHANNELS 3 Zrotation Xrotation Yrotation
                                    JOINT RightFinger42
                                    {
                                        OFFSET  -1.858760   0.000000   0.000000
                                        CHANNELS 3 Zrotation Xrotation Yrotation
                                        End Site
                                        {
                                            OFFSET  -1.818440   0.000000   0.000000
                                        }
                                    }
                                }
                            }
                        }
                    }
                }
            }
        }
    }
    JOINT LeftHip
    {
        OFFSET   9.783010   0.000000   0.000000
        CHANNELS 3 Zrotation Xrotation Yrotation
        JOINT LeftKnee
        {
            OFFSET   0.000073 -41.789100   0.001749
            CHANNELS 3 Zrotation Xrotation Yrotation
            JOINT LeftAnkle
            {
                OFFSET   0.000111 -41.133200  -0.000179
                CHANNELS 3 Zrotation Xrotation Yrotation
                JOINT LeftToe
                {
                    OFFSET   0.000000  -6.358960  14.674500
                    CHANNELS 3 Zrotation Xrotation Yrotation
                    End Site
                    {
                        OFFSET   0.000000   0.000000   3.913200
                    }
                }
            }
        }
    }
    JOINT RightHip
    {
        OFFSET  -9.783010   0.000000   0.000000
        CHANNELS 3 Zrotation Xrotation Yrotation
        JOINT RightKnee
        {
            OFFSET   0.000424 -41.789200   0.005205
            CHANNELS 3 Zrotation Xrotation Yrotation
            JOINT RightAnkle
            {
                OFFSET   0.000000 -41.133200  -0.000155
                CHANNELS 3 Zrotation Xrotation Yrotation
                JOINT RightToe
                {
                    OFFSET   0.000000  -6.358960  14.674500
                    CHANNELS 3 Zrotation Xrotation Yrotation
                    End Site
                    {
                        OFFSET   0.000000   0.000000   3.913200
                    }
                }
            }
        }
    }
}
MOTION
Frames: 4
Frame Time:   0.016667
 -0.075907  89.706400  -1.294690  -3.817520 -12.480100  -2.934720   0.798011   7.043820   0.081745   1.604230  14.088100   0.064489   1.426610  -1.384890   0.035364   2.347040  -2.804920   7.461360  -4.657680  -1.285370   2.014670 -72.799100  12.649200  -2.059090  -0.200691   1.623300 -20.430300  12.253400  -2.012650  -2.462770  41.745000  35.353200 -72.140800 -27.063000  -0.001022   0.000000  -8.531480  -0.003551  -0.014468 -27.631500   5.473430 -10.326600 -23.012500   0.000968   0.000000 -16.107600  -0.006390  -0.000377 -27.769100  -0.931199   1.746750 -30.689800   0.001818  -0.001803 -20.439400  -0.005682   0.000519 -28.095900  -0.941495   1.741360 -32.799100  -0.000216  -0.000438 -21.844200  -0.001368   0.000288 -29.582700  -0.986596   1.716740 -44.398000   0.001797  -0.000598 -29.569100   0.001319  -0.000725  10.125900  -0.308438   8.083410  66.967600   9.304960  -3.653270  -4.210090  -2.365170  16.562100  -9.335520  -5.734560   1.838450 -51.857400  47.662800  88.568400  29.035100   0.006319  -0.005414   9.517540   0.002802   0.001109  48.667300  11.347400   9.813600  40.618700  -0.013973  -0.002270  30.463700  -0.013167  -0.000651  40.070600   4.760260   5.641170  54.345100  -0.001064  -0.005185  37.373100  -0.000700   0.001194  41.530800   2.654440   2.993370  54.396900  -0.003059  -0.004617  37.753800  -0.004270   0.000159  50.530100  -4.732560  -3.886630  76.036200   0.014709  -0.005682  50.640100   0.001562  -0.006635   3.573020  12.343200   0.754267   1.528440   1.131460  11.496300  -1.418400  -1.535120   0.915623  -0.000000   0.000000  -0.000000   4.576900   9.033430   2.675830  -1.876750   7.696800 -22.201100   5.506850  -9.434740   7.869440  -0.000000   0.000000   0.000000
 -0.069273  89.706300  -1.282170  -3.819130 -12.480600  -2.942060   0.798120   7.043600   0.079284   1.604760  14.087600   0.059500   1.430960  -1.384750   0.035323   2.354540  -2.804460   7.461500  -4.657500  -1.290420   2.015430 -72.820500  12.649500  -2.058930  -0.192537   1.636670 -20.430400  12.253300  -2.010340  -2.467720  41.734600  35.349100 -72.131000 -27.063000  -0.001021   0.000000  -8.531490  -0.003558  -0.014463 -27.629500   5.463130 -10.309700 -23.009300   0.000968   0.000000 -16.105900  -0.006392  -0.000370 -27.767800  -0.931195   1.757490 -30.681900   0.001818  -0.001804 -20.434200  -0.005678   0.000522 -28.095700  -0.941490   1.752060 -32.786400  -0.000215  -0.000438 -21.835700  -0.001368   0.000286 -29.579700  -0.986591   1.727330 -44.392700   0.001797  -0.000598 -29.565500   0.001318  -0.000725  10.125500  -0.304919   8.093610  66.966200   9.309100  -3.652940  -4.170160  -2.386660  16.539700  -9.328460  -5.724240   1.806070 -51.875800  47.672700  88.569000  29.051500   0.006318  -0.005417   9.524870   0.002811   0.001107  48.640300  11.347000   9.824050  40.597300  -0.013980  -0.002275  30.450100  -0.013168  -0.000652  39.977900   4.760230   5.658700  54.340500  -0.001055  -0.005179  37.345400  -0.000692   0.001197  41.452800   2.659190   3.007000  54.395600  -0.003058  -0.004619  37.731500  -0.004274   0.000153  50.508000  -4.723780  -3.882490  76.002300   0.014714  -0.005668  50.617600   0.001559  -0.006629   3.567800  12.354800   0.754300   1.527970   1.131800  11.496300  -1.410850  -1.543750   0.922854   0.000000   0.000000  -0.000000   4.577110   9.034780   2.675660  -1.879450   7.703650 -22.207900   5.506700  -9.417690   7.882090  -0.000000   0.000000   0.000000
 -0.058750  89.705900  -1.261780  -3.821970 -12.484400  -2.954290   0.797984   7.043380   0.075317   1.604980  14.087200   0.051490   1.443290  -1.384600   0.035281   2.375190  -2.803990   7.461770  -4.657120  -1.299440   2.018480 -72.850900  12.652100  -2.058720  -0.181546   1.657650 -20.430600  12.253200  -2.004670  -2.476690  41.730800  35.347100 -72.119800 -27.063000  -0.001019   0.000000  -8.531500  -0.003568  -0.014457 -27.621500   5.452820 -10.292800 -23.001500   0.000970   0.000000 -16.101100  -0.006398  -0.000353 -27.764300  -0.931191   1.768220 -30.662400   0.001818  -0.001804 -20.421200  -0.005674   0.000525 -28.095500  -0.941484   1.762750 -32.765800  -0.000214  -0.000438 -21.822000  -0.001369   0.000284 -29.574400  -0.986586   1.737910 -44.384000   0.001796  -0.000596 -29.559700   0.001317  -0.000726  10.124800  -0.298126   8.113350  66.959400   9.338060  -3.650640  -4.092770  -2.442830  16.479900  -9.320240  -5.705420   1.751840 -51.902200  47.697500  88.575000  29.070400   0.006318  -0.005423   9.535190   0.002820   0.001105  48.590200  11.346400   9.843410  40.557600  -0.013993  -0.002288  30.422100  -0.013177  -0.000652  39.796700   4.760070   5.693040  54.331000  -0.001025  -0.005171  37.290900  -0.000672   0.001209  41.309600   2.667890   3.032090  54.392300  -0.003058  -0.004620  37.690500  -0.004285   0.000134  50.467800  -4.707800  -3.874930  75.940600   0.014726  -0.005633  50.576500   0.001548  -0.006613   3.560390  12.374700   0.754351   1.527070   1.134190  11.496500  -1.398840  -1.559390   0.933743  -0.000000   0.000000  -0.000000   4.577390   9.036980   2.675410  -1.881010   7.719080 -22.221300   5.506560  -9.389640   7.903930   0.000000   0.000000   0.000000
 -0.051071  89.705200  -1.246390  -3.827290 -12.493900  -2.963810   0.797257   7.044260   0.072273   1.603900  14.088900   0.045411   1.463220  -1.385000   0.035428   2.408090  -2.804520   7.461900  -4.656330  -1.307100   2.024750 -72.864400  12.659400  -2.058660  -0.180943   1.671340 -20.434800  12.258100  -1.993540  -2.485840  41.758300  35.359500 -72.120800 -27.046200  -0.001017   0.000000  -8.523120  -0.003577  -0.014462 -27.604900   5.452810 -10.297900 -22.988400   0.000972  -0.000000 -16.092000  -0.006406  -0.000328 -27.758700  -0.925694   1.758120 -30.629600   0.001820  -0.001802 -20.399400  -0.005676   0.000522 -28.095800  -0.936021   1.752640 -32.747100  -0.000214  -0.000439 -21.809600  -0.001369   0.000288 -29.568800  -0.980781   1.728000 -44.375400   0.001801  -0.000591 -29.554000   0.001318  -0.000726  10.123200  -0.288557   8.134600  66.936700   9.439790  -3.623120  -4.004150  -2.542540  16.380900  -9.321080  -5.691180   1.705690 -51.954700  47.739500  88.636200  29.073300   0.006333  -0.005428   9.539660   0.002817   0.001109  48.539100  11.348400   9.863080  40.517500  -0.014007  -0.002308  30.389200  -0.013195  -0.000651  39.591600   4.759720   5.731990  54.319500  -0.000967  -0.005170  37.228600  -0.000644   0.001232  41.164300   2.676660   3.057600  54.387000  -0.003059  -0.004621  37.648600  -0.004303   0.000100  50.427700  -4.691900  -3.867390  75.879300   0.014745  -0.005577  50.535600   0.001528  -0.006591   3.557300  12.391100   0.754324   1.526740   1.142210  11.496600  -1.390270  -1.574540   0.939730  -0.000000   0.000000   0.000000   4.577480   9.037910   2.675210  -1.874990   7.740470 -22.238300   5.505250  -9.367820   7.925060  -0.000000   0.000000   0.000000
